<?xml version="1.0" encoding="UTF-8"?>
<svg version="1.1" xmlns="http://www.w3.org/2000/svg" width="372" height="383">
<path d="M0 0 C122.76 0 245.52 0 372 0 C372 126.39 372 252.78 372 383 C249.24 383 126.48 383 0 383 C0 256.61 0 130.22 0 0 Z " fill="#F6F6F6" transform="translate(0,0)"/>
<path d="M0 0 C0.69738281 0.42410156 1.39476562 0.84820312 2.11328125 1.28515625 C9.23585554 6.10060667 13.73834167 12.72438656 16 21 C16.85255176 29.45612385 16.52010767 36.69720105 12 44 C11.5875 44.69738281 11.175 45.39476562 10.75 46.11328125 C6.32906418 52.78236341 0.19637067 55.99304011 -6.875 59.375 C-16.356054 61.2712108 -25.27186344 60.44303032 -33.5625 55.375 C-41.0040836 50.13551767 -45.76499061 42.82574729 -48 34 C-49.00119019 24.20085097 -47.51497211 16.31362203 -41.83203125 8.2109375 C-31.47261071 -4.29104976 -14.33567481 -8.90087353 0 0 Z " fill="#030303" transform="translate(91,271)"/>
<path d="M0 0 C8.93577551 4.20334177 14.56760392 9.48623984 18.6875 18.4375 C19.04972656 19.04207031 19.41195312 19.64664063 19.78515625 20.26953125 C22.3392259 26.40593236 21.60962316 34.72047491 19.51953125 40.87890625 C18.06475092 43.86700261 16.48799894 46.64586102 14.6875 49.4375 C14.31625 50.05238281 13.945 50.66726562 13.5625 51.30078125 C9.81955298 56.62622426 2.82395658 60.05308755 -3.23828125 62.08203125 C-15.01128074 64.09962627 -22.929289 61.73389202 -32.5625 55.25 C-39.49878587 48.15607127 -43.55856379 39.6421828 -43.75 29.6875 C-43.60537418 20.53750633 -40.16530316 13.68092886 -34.0546875 6.96875 C-30.84237744 4.14537434 -27.1388394 2.29501386 -23.3125 0.4375 C-22.69890625 0.07011719 -22.0853125 -0.29726562 -21.453125 -0.67578125 C-15.07544254 -3.31763147 -6.35814455 -2.32566355 0 0 Z " fill="#030303" transform="translate(198.3125,156.5625)"/>
<path d="M0 0 C5.91211606 4.86386853 10.16088795 11.22727914 11.25 18.875 C12.01080893 29.7209505 9.8757396 38.1190337 3.25 46.875 C0.78888725 49.29984372 -1.78158342 51.11918982 -4.75 52.875 C-5.74966797 53.49375 -5.74966797 53.49375 -6.76953125 54.125 C-13.99270309 57.98450555 -22.50998625 58.26712306 -30.3671875 56.1796875 C-32.64603306 55.24133933 -34.65723805 54.17437444 -36.75 52.875 C-37.44738281 52.45089844 -38.14476562 52.02679688 -38.86328125 51.58984375 C-45.98585554 46.77439333 -50.48834167 40.15061344 -52.75 31.875 C-53.9556755 19.91638142 -51.61886274 11.89685294 -44.25390625 2.59375 C-32.39962352 -10.9540017 -13.72221829 -9.69031442 0 0 Z " fill="#030303" transform="translate(319.75,50.125)"/>
<path d="M0 0 C7.54723237 4.7825344 13.01860052 10.5154199 15.6875 19.25 C17.02929594 31.05780427 15.26717877 40.39636686 8 50 C5.53872234 52.4250062 2.96701838 54.24176689 0 56 C-0.65484375 56.4125 -1.3096875 56.825 -1.984375 57.25 C-8.88455937 60.98543815 -16.35023823 60.9531652 -24 60 C-27.69933873 58.78607951 -30.77167872 57.15850721 -34 55 C-34.886875 54.443125 -35.77375 53.88625 -36.6875 53.3125 C-43.90063879 46.09936121 -48.25920139 38.50515592 -48.375 28.1875 C-48.21002407 18.3817432 -44.57843805 11.19221576 -38 4 C-35.8014162 2.0496434 -33.53202059 0.48545208 -31 -1 C-29.989375 -1.598125 -28.97875 -2.19625 -27.9375 -2.8125 C-18.9326563 -6.34142523 -8.21815007 -4.63697703 0 0 Z " fill="#030303" transform="translate(315,159)"/>
<path d="M0 0 C7.14027885 5.14901296 11.17321311 10.99187775 13.5546875 19.45703125 C14.40644633 27.90529036 14.08305893 35.1636729 9.5546875 42.45703125 C9.13058594 43.15441406 8.70648438 43.85179687 8.26953125 44.5703125 C3.45408083 51.69288679 -3.16969906 56.19537292 -11.4453125 58.45703125 C-19.90143635 59.30958301 -27.14251355 58.97713892 -34.4453125 54.45703125 C-35.49138672 53.83828125 -35.49138672 53.83828125 -36.55859375 53.20703125 C-43.22767591 48.78609543 -46.43835261 42.65340192 -49.8203125 35.58203125 C-51.71972546 26.08496643 -50.90701905 17.16072416 -45.7578125 8.89453125 C-41.12188994 2.27339611 -35.18160678 -3.17397079 -27.12109375 -5.09765625 C-16.9782524 -6.78566196 -8.68931078 -5.48287182 0 0 Z " fill="#030303" transform="translate(93.4453125,48.54296875)"/>
<path d="M0 0 C8.20527278 4.83787588 13.48315165 11.79062309 16 21 C16.85035892 29.43437396 16.56854354 36.73927902 12 44 C11.525625 44.77085937 11.05125 45.54171875 10.5625 46.3359375 C5.93263639 53.03588436 -0.18851188 57.082564 -7.91796875 59.6328125 C-19.67425936 61.70615456 -27.63470775 59.28433132 -37.25 52.8125 C-44.05512554 45.85271251 -48.03316965 37.78372734 -48.25 28.0625 C-48.05323756 19.18632756 -45.66310673 12.8198264 -40 6 C-28.55028495 -4.78354981 -14.16437002 -7.92118951 0 0 Z " fill="#030303" transform="translate(91,159)"/>
<path d="M0 0 C8.31915457 5.20948985 14.74232441 10.79128615 17.71484375 20.51953125 C18.96670657 31.53592406 17.69804922 40.2718355 11.02734375 49.26953125 C5.47668613 55.72029551 -2.04647406 60.70222368 -10.625 61.5234375 C-19.98710892 61.89695793 -28.00267955 60.03030806 -35.34765625 54.01953125 C-41.40721018 48.22073681 -45.45721013 41.38203754 -46.30859375 32.9375 C-46.39293158 25.42299902 -45.9723043 19.711332 -41.97265625 13.26953125 C-41.54855469 12.57214844 -41.12445313 11.87476563 -40.6875 11.15625 C-31.87373771 -1.88026192 -14.3527674 -7.56393515 0 0 Z " fill="#030303" transform="translate(312.97265625,269.73046875)"/>
<path d="M0 0 C4.42031172 3.62371844 6.82340206 7.67604623 9.1875 12.8125 C9.54972656 13.41707031 9.91195312 14.02164063 10.28515625 14.64453125 C12.86725661 20.84827887 12.14668397 29.04083204 9.984375 35.2890625 C6.58696901 42.20398479 3.05475738 48.08909938 -3.75 52 C-5.00103516 52.73283203 -5.00103516 52.73283203 -6.27734375 53.48046875 C-13.92353351 57.49795828 -21.980956 58.33527707 -30.4453125 56.125 C-32.71046926 55.17789613 -34.72571021 54.10413004 -36.8125 52.8125 C-37.85857422 52.19375 -37.85857422 52.19375 -38.92578125 51.5625 C-46.30669389 46.66969162 -50.47223101 39.24170414 -52.8125 30.8125 C-53.84465763 21.64259436 -53.01477966 14.49862672 -47.8125 6.8125 C-47.37808594 6.16667969 -46.94367188 5.52085938 -46.49609375 4.85546875 C-34.74995481 -10.50486679 -14.85917784 -10.54364104 0 0 Z " fill="#030303" transform="translate(207.8125,50.1875)"/>
<path d="M0 0 C1.8811712 1.07923766 3.73897329 2.20098579 5.5625 3.375 C6.25214844 3.808125 6.94179687 4.24125 7.65234375 4.6875 C13.27392598 8.82065455 16.41049565 14.85054864 18.5625 21.375 C20.11173306 32.08954318 17.85363682 40.71718035 11.9375 49.625 C6.71441808 56.1406628 -1.16024005 60.38737239 -9.4375 61.375 C-19.2364531 62.23868978 -26.30911338 59.75753137 -34.328125 54.171875 C-37.92977171 51.10380558 -40.21459378 47.51445037 -42.4375 43.375 C-42.7778125 42.76011719 -43.118125 42.14523437 -43.46875 41.51171875 C-46.69373036 34.53919177 -46.84351269 25.69140109 -44.48828125 18.4609375 C-39.98732379 9.06146168 -33.32206206 2.11009132 -23.56640625 -1.765625 C-15.47804756 -3.98714674 -7.57597833 -3.64028141 0 0 Z " fill="#030303" transform="translate(200.4375,269.625)"/>
</svg>
