<?xml version="1.0" encoding="UTF-8"?>
<svg version="1.1" xmlns="http://www.w3.org/2000/svg" width="555" height="490">
<path d="M0 0 C183.15 0 366.3 0 555 0 C555 161.7 555 323.4 555 490 C371.85 490 188.7 490 0 490 C0 328.3 0 166.6 0 0 Z " fill="#F6F6F6" transform="translate(0,0)"/>
<path d="M0 0 C1.33544748 0.32234939 2.6714113 0.64256517 4.0078125 0.9609375 C34.04760429 8.52055096 60.20355304 29.97737762 75.98779297 56.27734375 C81.7056144 66.0083973 85.67960757 76.2489834 89 87 C89.34417969 88.11117187 89.68835938 89.22234375 90.04296875 90.3671875 C95.03934796 110.30578999 93.52102618 132.65374354 87 152 C86.74831055 152.79937988 86.49662109 153.59875977 86.23730469 154.42236328 C76.86425533 184.08010626 55.80840809 208.48788105 28.37109375 223.09838867 C19.28910337 227.76934874 9.83484655 231.26706161 0 234 C-0.96607178 234.26997803 -1.93214355 234.53995605 -2.92749023 234.81811523 C-11.24497874 236.95244525 -19.1195572 237.50701454 -27.6875 237.4375 C-29.00314941 237.42992676 -30.31879883 237.42235352 -31.67431641 237.41455078 C-41.90453512 237.24218084 -51.27694113 236.18052908 -61 233 C-61.69222656 232.77505859 -62.38445312 232.55011719 -63.09765625 232.31835938 C-95.75160184 221.40364275 -120.57642753 199.49607493 -136.75 169.3125 C-150.33379116 141.02096333 -152.39195314 107.35665959 -142.20507812 77.68457031 C-140.43876046 72.96380044 -138.32872435 68.46660925 -136 64 C-135.53787109 63.09846191 -135.53787109 63.09846191 -135.06640625 62.17871094 C-120.73690662 34.60482938 -96.33980196 12.74018671 -66.73876953 2.68383789 C-63.51669561 1.677187 -60.27244281 0.83077495 -57 0 C-55.32744141 -0.47566406 -55.32744141 -0.47566406 -53.62109375 -0.9609375 C-36.58356932 -5.18639862 -16.86678884 -4.70434246 0 0 Z " fill="#F6F6F6" transform="translate(257,92)"/>
<path d="M0 0 C1.0617041 0.00410889 2.1234082 0.00821777 3.21728516 0.01245117 C9.29432699 0.05524724 15.36743415 0.13185114 21.4375 0.4375 C22.58992187 0.49550781 23.74234375 0.55351563 24.9296875 0.61328125 C28.791904 1.1573139 32.27718611 2.14325681 35.98779297 3.31567383 C38.43040944 4.08347903 40.88107892 4.77736711 43.3515625 5.44921875 C54.48089733 8.54986668 64.49867177 12.45731245 74.5625 18.125 C75.20026367 18.47965332 75.83802734 18.83430664 76.49511719 19.19970703 C99.2553844 31.97004373 117.42999921 49.19298691 131.5625 71.125 C132.15160156 72.0015625 132.74070312 72.878125 133.34765625 73.78125 C153.08430859 104.51779658 159.8608381 144.91796745 152.671875 180.5390625 C149.5264001 194.23573768 145.02287398 207.63605081 138.5625 220.125 C138.03011719 221.1975 137.49773437 222.27 136.94921875 223.375 C133.3352896 230.42008488 129.23958574 236.41954207 124.1875 242.46875 C122.32679176 244.94458517 122.32679176 244.94458517 122.69563389 247.4969101 C123.78982388 250.81418094 125.32765253 252.37448133 127.80735779 254.83068848 C129.18079849 256.20587395 129.18079849 256.20587395 130.58198547 257.60884094 C131.60453398 258.61244927 132.62726032 259.61587645 133.65014648 260.61914062 C134.7218064 261.68475978 135.792565 262.75128601 136.86248779 263.81864929 C139.1670948 266.11400407 141.47781963 268.40295169 143.79345512 270.68717957 C147.45494241 274.29935186 151.1016587 277.92619321 154.74635315 281.55529785 C161.82746111 288.60211645 168.92322154 295.63407356 176.02078247 302.66431427 C185.05281243 311.61177558 194.07899395 320.56508298 203.09040123 329.53331709 C206.71479656 333.13934082 210.34673677 336.73753683 213.984743 340.32982635 C216.2467591 342.56627275 218.50258332 344.80888698 220.75682068 347.05317116 C221.80310245 348.09224117 222.85197936 349.12870554 223.9036274 350.16234398 C225.33954182 351.57434638 226.76536511 352.99658894 228.19065857 354.41931152 C228.99131965 355.21201195 229.79198072 356.00471237 230.61690426 356.82143402 C233.51104665 360.24806979 234.46427051 363.06412151 234.875 367.5 C234.43405677 372.61494147 232.91762006 376.39605372 229.75 380.4375 C225.10153832 384.02345615 220.31408697 384.63853455 214.5625 384.125 C210.13697389 382.24695122 207.10031 380.02805411 203.73655701 376.6194458 C202.81839203 375.69673386 201.90022705 374.77402191 200.95423889 373.823349 C199.95431916 372.80324685 198.95452157 371.78302496 197.95483398 370.76269531 C196.88887903 369.68606333 195.82220962 368.61013833 194.75488281 367.53486633 C192.46392731 365.22430789 190.17758094 362.90931729 187.89459038 360.59088898 C184.28555292 356.92687703 180.66341125 353.27601158 177.03883362 349.62738037 C166.73631874 339.2524746 156.45171707 328.8599171 146.17993164 318.45458984 C140.50215377 312.70322935 134.8136942 306.96265144 129.11351258 301.23349261 C125.50633697 297.60666632 121.91310979 293.96672423 118.32954586 290.31657362 C116.10120777 288.053114 113.8604942 285.80223401 111.61603546 283.55476952 C110.57593949 282.5082168 109.54102898 281.4564818 108.51169777 280.39933968 C107.10886082 278.96007684 105.68566647 277.54073919 104.26145935 276.12261963 C103.47005774 275.32179081 102.67865614 274.52096199 101.86327267 273.69586563 C99.66157518 271.8494582 99.66157518 271.8494582 96.91896152 272.27724838 C94.01952587 273.3203383 92.04621115 274.78112266 89.625 276.6875 C58.37863459 300.04926853 18.06963383 308.30632115 -20.28125 303.35546875 C-58.65577703 297.3093214 -95.48511102 275.79598628 -118.875 244.5625 C-120.08697654 242.76627469 -121.27270697 240.95217533 -122.4375 239.125 C-123.25240072 237.89179262 -124.06752074 236.65873014 -124.8828125 235.42578125 C-146.11715372 202.85955645 -155.12398604 161.55743018 -147.4375 123.125 C-141.00291595 93.53884722 -127.05319691 68.20594479 -106.4375 46.125 C-105.31408203 44.90296875 -105.31408203 44.90296875 -104.16796875 43.65625 C-81.59867134 20.00153033 -50.39053796 6.0599692 -18.4375 1.125 C-17.36886719 0.93808594 -16.30023438 0.75117187 -15.19921875 0.55859375 C-10.12212429 -0.02661652 -5.10634795 -0.02372614 0 0 Z M-26.4375 35.125 C-28.31115234 35.60066406 -28.31115234 35.60066406 -30.22265625 36.0859375 C-46.13524051 40.36546574 -60.85253213 48.55661452 -73.4375 59.125 C-74.30632812 59.85460937 -75.17515625 60.58421875 -76.0703125 61.3359375 C-94.89857195 77.7458884 -108.28172344 98.85875035 -114.4375 123.125 C-114.73527344 124.176875 -115.03304687 125.22875 -115.33984375 126.3125 C-119.56621801 143.45171358 -119.17165682 163.15131578 -114.4375 180.125 C-114.11515061 181.46044748 -113.79493483 182.7964113 -113.4765625 184.1328125 C-105.91694904 214.17260429 -84.46012238 240.32855304 -58.16015625 256.11279297 C-48.4291027 261.8306144 -38.1885166 265.80460757 -27.4375 269.125 C-25.77074219 269.64126953 -25.77074219 269.64126953 -24.0703125 270.16796875 C-4.19227061 275.14917219 18.28099715 273.71847399 37.5625 267.125 C38.29130371 266.88442871 39.02010742 266.64385742 39.77099609 266.39599609 C70.90552566 255.98990249 95.41331601 234.36864796 110.56640625 205.37109375 C112.86394957 200.70601425 114.50901155 195.87261979 116.125 190.9375 C116.41568359 190.08091797 116.70636719 189.22433594 117.00585938 188.34179688 C120.98925879 176.32030736 123.10301433 165.13442528 123 152.4375 C122.99242676 151.12185059 122.98485352 149.80620117 122.97705078 148.45068359 C122.80468084 138.22046488 121.74302908 128.84805887 118.5625 119.125 C118.22508789 118.08666016 118.22508789 118.08666016 117.88085938 117.02734375 C106.96614275 84.37339816 85.05857493 59.54857247 54.875 43.375 C38.37852582 35.45444543 20.48598988 31.72265471 2.25 31.8125 C1.06301514 31.81741455 -0.12396973 31.8223291 -1.34692383 31.82739258 C-10.09622024 31.94416164 -17.99110356 32.72290344 -26.4375 35.125 Z " fill="#020202" transform="translate(226.4375,56.875)"/>
</svg>
